<svg xmlns="http://www.w3.org/2000/svg" xmlns:xlink="http://www.w3.org/1999/xlink" viewBox="0 0 777 772"><defs><clipPath id="clip-path"><circle cx="390.5" cy="386.5" r="380.5" style="fill:none"/></clipPath></defs><title>calendar</title><g id="Layer_8" data-name="Layer 8"><g style="clip-path:url(#clip-path)"><circle cx="390.5" cy="386.5" r="380.5" style="fill:#69e8b1"/><path d="M760.19,296.06C824.3,579.23,579.41,805.84,330.05,762.22h0L147.14,614.67,643.07,179.21,760.19,296.06" style="fill:#60cc9b"/></g></g><g id="Layer_3" data-name="Layer 3"><rect x="134.08" y="182.26" width="524.42" height="455.15" rx="60" ry="60" style="fill:#bdc3c7"/><rect x="134.08" y="173.02" width="524.42" height="464.39" rx="60" ry="60" style="fill:#bdc3c7"/><rect x="133.16" y="173.9" width="524.42" height="440.77" rx="60" ry="60" style="fill:#ecf0f1"/><rect x="132.86" y="287.22" width="526.09" height="24.62" style="fill:#c04a3f"/></g><g id="Layer_4" data-name="Layer 4"><path d="M658.49,219.53l.46,67.7H132.86l.3-67.7S135.42,162.4,189,162.4H588.81C599.48,161.53,659,162.4,658.49,219.53Z" style="fill:#e74c3c"/></g><g id="Layer_5" data-name="Layer 5"><circle cx="221.17" cy="224.31" r="40.64" style="fill:#c04a3f"/><circle cx="570.99" cy="225.71" r="40.64" style="fill:#c04a3f"/><rect x="192.31" y="362.52" width="58.29" height="50.45" style="fill:#bdc3c7"/><rect x="279.46" y="362.52" width="58.29" height="50.45" style="fill:#bdc3c7"/><rect x="366.76" y="362.63" width="58.29" height="50.45" style="fill:#bdc3c7"/><rect x="454.34" y="362.63" width="58.29" height="50.45" style="fill:#bdc3c7"/><rect x="541.84" y="362.52" width="58.29" height="50.45" style="fill:#bdc3c7"/><rect x="192.31" y="437.52" width="58.29" height="50.45" style="fill:#bdc3c7"/><rect x="279.46" y="437.52" width="58.29" height="50.45" style="fill:#bdc3c7"/><rect x="366.76" y="437.63" width="58.29" height="50.45" style="fill:#bdc3c7"/><rect x="454.34" y="437.63" width="58.29" height="50.45" style="fill:#bdc3c7"/><rect x="541.84" y="437.52" width="58.29" height="50.45" style="fill:#bdc3c7"/><rect x="192.31" y="513.52" width="58.29" height="50.45" style="fill:#bdc3c7"/><rect x="279.46" y="513.52" width="58.29" height="50.45" style="fill:#bdc3c7"/><rect x="366.76" y="513.63" width="58.29" height="50.45" style="fill:#bdc3c7"/><rect x="454.34" y="513.63" width="58.29" height="50.45" style="fill:#bdc3c7"/><rect x="541.84" y="513.52" width="58.29" height="50.45" style="fill:#bdc3c7"/><rect x="199.59" y="383.23" width="43.72" height="9.03" rx="4.52" ry="4.52" transform="translate(339.04 -43.02) rotate(45)" style="fill:#f44336"/><rect x="199.59" y="383.23" width="43.72" height="9.03" rx="4.52" ry="4.52" transform="translate(-209.31 270.16) rotate(-45)" style="fill:#f44336"/><rect x="286.75" y="383.33" width="43.72" height="9.03" rx="4.52" ry="4.52" transform="translate(364.64 -104.62) rotate(45)" style="fill:#f44336"/><rect x="286.75" y="383.33" width="43.72" height="9.03" rx="4.52" ry="4.52" transform="translate(-183.86 331.81) rotate(-45)" style="fill:#f44336"/><rect x="374.04" y="384.31" width="43.72" height="9.03" rx="4.52" ry="4.52" transform="translate(390.9 -166.06) rotate(45)" style="fill:#f44336"/><rect x="374.04" y="384.31" width="43.72" height="9.03" rx="4.52" ry="4.52" transform="translate(-158.98 393.83) rotate(-45)" style="fill:#f44336"/><rect x="461.58" y="381.98" width="43.72" height="9.03" rx="4.52" ry="4.52" transform="translate(414.89 -228.64) rotate(45)" style="fill:#f44336"/><rect x="461.58" y="381.98" width="43.72" height="9.03" rx="4.52" ry="4.52" transform="translate(-131.7 455.05) rotate(-45)" style="fill:#f44336"/><rect x="547.94" y="383.23" width="43.72" height="9.03" rx="4.52" ry="4.52" transform="translate(441.07 -289.34) rotate(45)" style="fill:#f44336"/><rect x="547.94" y="383.23" width="43.72" height="9.03" rx="4.52" ry="4.52" transform="translate(-107.29 516.48) rotate(-45)" style="fill:#f44336"/><rect x="199.59" y="458.33" width="43.72" height="9.03" rx="4.52" ry="4.52" transform="translate(392.14 -21.02) rotate(45)" style="fill:#f44336"/><rect x="199.59" y="458.33" width="43.72" height="9.03" rx="4.52" ry="4.52" transform="translate(-262.42 292.16) rotate(-45)" style="fill:#f44336"/><rect x="286.75" y="458.73" width="43.72" height="9.03" rx="4.52" ry="4.52" transform="translate(417.95 -82.54) rotate(45)" style="fill:#f44336"/><rect x="286.75" y="458.73" width="43.72" height="9.03" rx="4.52" ry="4.52" transform="translate(-237.17 353.9) rotate(-45)" style="fill:#f44336"/><rect x="191.74" y="112.82" width="59.41" height="126.95" rx="29.71" ry="29.71" style="fill:#bdc3c7"/><rect x="541.28" y="111.26" width="59.41" height="126.95" rx="29.71" ry="29.71" style="fill:#bdc3c7"/></g></svg>