<svg xmlns="http://www.w3.org/2000/svg" viewBox="0 0 777 772"><title>Artboard 1</title><g id="education"><circle cx="388.8" cy="386" r="380.5" style="fill:#4abc96"/><path d="M212.29,347.28,188.34,436.7s40.84,100,199.29,100,200.28-100,200.28-100L564,347.28H212.29Z" style="fill:#242d2b"/><path d="M212.29,347.28,188.34,436.7s40.84,100,199.29,100l-1.2-189.42H212.29Z" style="fill:#2a3633"/><path d="M212.29,347.28l-7.41,25.84L367,420.46c12.41,3.78,32.52,3.78,44.93,0L571.36,374,564,347.28H212.29Z" style="fill:#181e1d"/><path d="M411.93,411.2c-12.41,3.78-32.52,3.78-44.93,0l-274.55-84c-12.41-3.8-12.41-9.94,0-13.74l274.54-84c12.4-3.8,32.52-3.8,44.92,0l274.55,84c12.41,3.8,12.41,9.94,0,13.75Z" style="fill:#2a3633"/><path d="M544.79,370.34a3.73,3.73,0,0,0-3.73,3.73V525a3.73,3.73,0,0,0,7.45,0V374.07A3.73,3.73,0,0,0,544.79,370.34Z" style="fill:#bc992f"/><path d="M545.79,370.46,390,321.83a3.72,3.72,0,1,0-2.23,7.11l155.79,48.62a3.72,3.72,0,1,0,2.24-7.09Z" style="fill:#bc992f"/><path d="M554.9,453.72c0,6.48-4.64,11.74-10.38,11.74s-10.38-5.26-10.38-11.74S538.8,442,544.53,442,554.9,447.22,554.9,453.72Z" style="fill:#bc992f"/><path d="M541.15,463.37s-10.27,11.84-10.27,19c0,3-.11,19.64-.19,31.78,0,7.34-5.51,13-5.51,13,0,4.13,38.68,4.13,38.68,0,0,0-5.46-5.52-5.52-12.69-.09-11.85-.22-28.2-.22-31.57,0-7.72-10.23-19.57-10.23-19.57Z" style="fill:#bc992f"/><ellipse cx="390.18" cy="326.22" rx="19.47" ry="12.02" style="fill:#2b2b2a"/></g></svg>