<?xml version="1.0" encoding="utf-8"?>
<!-- Generator: Adobe Illustrator 21.1.0, SVG Export Plug-In . SVG Version: 6.00 Build 0)  -->
<svg version="1.1" xmlns="http://www.w3.org/2000/svg" xmlns:xlink="http://www.w3.org/1999/xlink" x="0px" y="0px"
	 viewBox="0 0 777 772" style="enable-background:new 0 0 777 772;" xml:space="preserve">
<style type="text/css">
	.st0{display:none;}
	.st1{display:inline;}
	.st2{fill:#ED7766;}
	.st3{fill:#D85049;}
	.st4{fill:#2B68AE;}
	.st5{fill:#1B5591;}
	.st6{fill:#2E83C6;}
	.st7{fill:#5AB0F7;}
	.st8{fill:#97CFF9;}
	.st9{fill:#59B1F8;}
	.st10{display:inline;fill:#ED7766;}
</style>
<g id="octocat" class="st0">
	<title>Artboard 1</title>
	<path class="st1" d="M718.6,200C684.4,141.4,638,95,579.4,60.8c-58.6-34.2-122.6-51.3-192-51.3c-69.4,0-133.4,17.1-192,51.3
		S90.4,141.4,56.1,200C21.9,258.7,4.8,322.7,4.8,392c0,83.3,24.3,158.3,73,224.9s111.5,112.7,188.5,138.3c9,1.7,15.6,0.5,19.9-3.5
		c4.2-3.8,6.6-9.3,6.5-14.9c0-1-0.1-10-0.2-26.9c-0.2-16.9-0.2-31.7-0.2-44.3l-11.5,2c-7.3,1.3-16.6,1.9-27.6,1.7
		c-11.6-0.2-23.2-1.4-34.6-3.5c-12.2-2.2-23.6-7.4-33.4-14.9c-10.2-7.7-17.9-18.4-21.9-30.6l-5-11.5c-3.3-7.6-8.6-16.1-15.7-25.4
		c-7.1-9.3-14.3-15.6-21.7-18.9l-3.5-2.5c-2.4-1.7-4.6-3.7-6.5-6c-1.8-2.1-3.4-4.5-4.5-7c-1-2.3-0.2-4.2,2.5-5.7
		c2.7-1.5,7.5-2.2,14.4-2.2l10,1.5c6.7,1.3,14.9,5.3,24.7,12c9.9,6.7,18.1,15.6,24.2,25.9c7.6,13.6,16.9,24,27.6,31.1
		s21.7,10.7,32.6,10.7c9.5,0.1,19-0.7,28.4-2.5c7.7-1.6,15.3-4.1,22.4-7.5c3-22.3,11.1-39.4,24.4-51.3c-17.2-1.7-34.3-4.7-51.1-9
		c-15.1-4-30.7-10.5-46.8-19.4c-15.4-8.4-29-19.7-40.1-33.4c-10.6-13.3-19.3-30.7-26.1-52.3s-10.2-46.5-10.2-74.7
		c0-40.2,13.1-74.4,39.3-102.6c-12.3-30.2-11.1-64.1,3.5-101.6c9.6-3,23.9-0.8,42.8,6.7c18.9,7.5,32.8,13.9,41.6,19.2
		c8.8,5.3,15.9,9.8,21.2,13.4c62.6-17.3,128.7-17.3,191.3,0l19-11.9c12.9-8,28.2-15.3,45.8-21.9c17.6-6.6,31.1-8.4,40.4-5.5
		c14.9,37.5,16.3,71.4,4,101.6c26.2,28.2,39.4,62.4,39.4,102.6c0,28.2-3.4,53.2-10.2,75s-15.6,39.2-26.4,52.3
		c-11.2,13.5-24.9,24.7-40.4,33.1c-16.2,9-31.8,15.4-46.9,19.4c-16.8,4.3-33.8,7.3-51,9c17.3,14.9,25.9,38.5,25.9,70.7v105.1
		c-0.1,5.6,2.1,11.1,6.2,14.9c4.2,4,10.7,5.2,19.7,3.5c77-25.6,139.9-71.6,188.6-138.2s73-141.6,73-224.9
		C769.9,322.7,752.8,258.7,718.6,200z"/>
	
		<image style="display:inline;overflow:visible;" width="450" height="470" xlink:href="../../../../../../../Desktop/serveimage.jpg"  transform="matrix(2.0923 0 0 2.0923 -82.471 -84.7823)">
	</image>
</g>
<g id="Layer_2">
	<circle class="st2" cx="385" cy="385" r="378"/>
</g>
<g id="Layer_8">
	<path class="st3" d="M591.6,234.3l171.3,169.1c0,0,4.7,128.9-106.6,243.4c0,0-49.2,65.7-188,107L342.9,625.2l45.2-393.4
		L591.6,234.3z"/>
</g>
<g id="Layer_3">
	<polygon class="st4" points="342.9,627.2 433.9,536.5 433.9,432.5 342.9,432.5 	"/>
</g>
<g id="Layer_4">
	<polygon class="st5" points="388.5,432.5 387.4,583.8 433.8,536.5 433.8,432.5 	"/>
</g>
<g id="Layer_5">
	<polygon class="st4" points="388.6,432.5 433.8,432.5 578.1,287.5 388.5,287.5 	"/>
</g>
<g id="Layer_6">
	<polygon class="st6" points="388.3,432.5 342.6,432.5 197.3,287.5 388.2,287.5 	"/>
	<rect x="197.3" y="241.3" class="st7" width="191.2" height="46.2"/>
	<rect x="388.2" y="241.3" class="st6" width="189.9" height="46.2"/>
	<path class="st8" d="M579.4,242.5H196.9c-4.8,0-8.8-4-8.8-8.8v0c0-4.8,4-8.8,8.8-8.8h382.4c4.8,0,8.8,4,8.8,8.8v0
		C588.1,238.6,584.2,242.5,579.4,242.5z"/>
	<path class="st9" d="M388.5,225h195.2c4.6,0,8.3,4,8.3,8.8v0c0,4.8-3.7,8.8-8.3,8.8H388.5"/>
</g>
<g id="Layer_7" class="st0">
	<circle class="st10" cx="392" cy="386" r="378"/>
</g>
</svg>
