<?xml version="1.0" encoding="UTF-8"?>
<svg enable-background="new 0 0 781.2 780" version="1.1" viewBox="0 0 781.2 780" xml:space="preserve" xmlns="http://www.w3.org/2000/svg">
<style type="text/css">
	.st0{fill:#81C784;}
	.st1{fill:#F44336;}
	.st2{fill:#D32F2F;}
</style>
<circle class="st0" cx="390.9" cy="390.1" r="384.5"/>
<path class="st1" d="m71.5 233.6l142.2 37.8 120.5-69.9s5.6-2.4 14.5 0c8.8 2.4 16.9 9.6 16.9 9.6l-45.8 34.6-28.1 115.7s8.3 23.4 24.4 29.2c0 0 11.1 5.5 38.4 11.2 0.3 0.1 1.4 0.1 1.7 0.1 3.7 0.1 28-0.5 34.7-17.1l17.4-80.4 24.1-16.1 126 72.5 82.1 47.2s14.2 6.5 8 22.5c-7.8 20-21.7 31.3-21.7 31.3s-2 3.1-15.3 0c-14.1-3.3-62.8-34.1-69.2-38.1-0.5-0.3-1-0.4-1.5-0.4-2.2 0.1-8.1 0.3-12 1.6-4.8 1.6 76.3 45 76.3 45s10.7 5.5 6.4 22.5c-2.4 9.4-3.6 13.2-5.6 16.9-2.7 4.9-13.7 13.7-13.7 13.7s-2.1 3.7-17.7 0c-15-3.6-60.5-31.4-68-36.3-0.7-0.5-1.5-0.7-2.4-0.6l-12.4 0.7 65.1 39.4s10.1 4.8 6.4 20.1c-3.8 15.8-14.7 27-17.1 29.4-0.3 0.3-2.2 1.8-2.5 2-1.9 1.4-10.3 4.8-20.6 0.7-10.7-4.3-45.1-25.8-52.5-30.5-0.9-0.6-2-0.8-3-0.6l-10.4 2.1 32.1 19.3s7.2 7.2 1.6 24.1-17.7 26.5-17.7 26.5-6.4 6.4-20.1 0-13.7-6.4-13.7-6.4l12.4-25.6c0.3-0.6 0.5-1.3 0.4-2-0.1-3-0.9-12.1-8.1-23.8-8.8-14.5-27.3-19.3-27.3-19.3s-9.6-2.4-20.1-0.8c0 0 0.9-10.4-11.2-24.9-10.8-12.9-30.5-18.1-34.6-19.1-0.5-0.1-1-0.2-1.6-0.1-3.7 0.2-19.2 1.6-29.7 12.8 0 0-8.8-12.9-23.3-20.9-14.1-7.8-24.9-6.4-24.9-6.4s-19.2 3-23.3 9.6c-4.4 7-8.8 16.9-8.8 16.9s-7.2-17.7-25.7-24.1-26.6-4.4-32.1-3.2c-4.6 1-18.5 14.5-20.1 21.7l-90-22.5v-247.6z"/>
<path class="st2" d="m623 503.4s8-16.9 0-28.7c0 0 12-1.3 21-10.3s15.8-27.4 15.8-27.4 7.7-17.5-3.4-32.5c0 0-7.3-7.8-18-14.6l-205.7-116.1-33.4 24-17.5 77.8s-0.8 14.5-21.2 14.5c-20.3 0-42.1-10.2-42.1-10.2s-15.8-5.8-14.1-23l21.8-92.9s1.5-6.6 13-19.5l0.9-0.9 63.8-47.8c1.4-0.7 16-16.9 44.2-1.9l127 73.6 124.5-34.2v249.8l-76.6 20.3z"/>
<path class="st2" d="m314.1 523.5l-45.1 78c-2.2 3.8-7.1 5.1-10.9 2.9l-37.6-21.7c-3.8-2.2-5.1-7.1-2.9-10.9l45.1-78.1c2.2-3.8 7.1-5.1 10.9-2.9l37.6 21.7c3.8 2.2 5.1 7.2 2.9 11z"/>
<path class="st2" d="m387.5 536.6l-57 98.7c-2.2 3.8-7.1 5.1-10.9 2.9l-37.6-21.7c-3.8-2.2-5.1-7.1-2.9-10.9l57-98.7c2.2-3.8 7.1-5.1 10.9-2.9l37.6 21.7c3.8 2.2 5.1 7.1 2.9 10.9z"/>
<path class="st2" d="m442.8 581l-51.8 89.8c-2.2 3.8-7.1 5.1-10.9 2.9l-37.6-21.7c-3.8-2.2-5.1-7.1-2.9-10.9l51.8-89.7c2.2-3.8 7.1-5.1 10.9-2.9l37.6 21.7c3.8 2.1 5.1 7 2.9 10.8z"/>
<path class="st2" d="m233.5 520.9l-25 43.4c-2.2 3.8-7.1 5.1-10.9 2.9l-37.6-21.7c-3.8-2.2-5.1-7.1-2.9-10.9l25-43.4c2.2-3.8 7.1-5.1 10.9-2.9l37.6 21.7c3.8 2.1 5.1 7.1 2.9 10.9z"/>
</svg>
