<?xml version="1.0" encoding="utf-8"?>
<!-- Generator: Adobe Illustrator 21.1.0, SVG Export Plug-In . SVG Version: 6.00 Build 0)  -->
<svg version="1.1" xmlns="http://www.w3.org/2000/svg" xmlns:xlink="http://www.w3.org/1999/xlink" x="0px" y="0px"
	 viewBox="0 0 777 386" style="enable-background:new 0 0 777 386;" xml:space="preserve">
<style type="text/css">
	.st0{opacity:0.48;fill:url(#SVGID_1_);stroke:#000000;stroke-miterlimit:10;}
	.st1{fill:url(#SVGID_2_);}
	.st2{fill:#009933;}
	.st3{fill:#00CC33;}
	.st4{fill:#66CC00;}
	.st5{fill:#FF6600;}
	.st6{fill:#FF0000;}
	.st7{fill:#0E232B;stroke:#592A0B;stroke-miterlimit:10;}
</style>
<g id="Layer_2">
	<linearGradient id="SVGID_1_" gradientUnits="userSpaceOnUse" x1="8.906" y1="196.453" x2="767.0939" y2="196.453">
		<stop  offset="0" style="stop-color:#90A4AE"/>
		<stop  offset="0.5818" style="stop-color:#78909C"/>
		<stop  offset="1" style="stop-color:#607D8B"/>
	</linearGradient>
	<path class="st0" d="M8.9,386c0-51.8,10.6-104.5,33.2-154.9c85.5-191,309.7-276.6,500.8-191C683.6,103.1,767,241.2,767.1,386
		L8.9,386z"/>
</g>
<g id="Layer_3_1_">
	<linearGradient id="SVGID_2_" gradientUnits="userSpaceOnUse" x1="159.939" y1="242" x2="612.061" y2="242">
		<stop  offset="0" style="stop-color:#4CAF50"/>
		<stop  offset="0.5818" style="stop-color:#76944A"/>
		<stop  offset="1" style="stop-color:#F44336"/>
	</linearGradient>
	<path class="st1" d="M160,357h21c0,0,15-170,173-170s169,170,169,170h89c0,0,10-230-226-230S160,357,160,357z"/>
	<path class="st2" d="M80.5,366h42c6.3,0,11.5-5.2,11.5-11.5l0,0c0-6.3-5.2-11.5-11.5-11.5h-42c-6.3,0-11.5,5.2-11.5,11.5l0,0
		C69,360.8,74.2,366,80.5,366z"/>
	<path class="st3" d="M162.5,146.6l29.7,29.7c4.5,4.5,11.8,4.5,16.3,0l0,0c4.5-4.5,4.5-11.8,0-16.3l-29.7-29.7
		c-4.5-4.5-11.8-4.5-16.3,0l0,0C158,134.8,158,142.1,162.5,146.6z"/>
	<path class="st4" d="M374.5,47.5v42c0,6.3,5.2,11.5,11.5,11.5l0,0c6.3,0,11.5-5.2,11.5-11.5v-42c0-6.3-5.2-11.5-11.5-11.5l0,0
		C379.7,36,374.5,41.2,374.5,47.5z"/>
	<path class="st5" d="M581.8,175.3l29.7-29.7c4.5-4.5,4.5-11.8,0-16.3v0c-4.5-4.5-11.8-4.5-16.3,0l-29.7,29.7
		c-4.5,4.5-4.5,11.8,0,16.3v0C570,179.8,577.3,179.8,581.8,175.3z"/>
	<path class="st6" d="M650.5,366h42c6.3,0,11.5-5.2,11.5-11.5l0,0c0-6.3-5.2-11.5-11.5-11.5h-42c-6.3,0-11.5,5.2-11.5,11.5l0,0
		C639,360.8,644.2,366,650.5,366z"/>
	<path d="M681.8,263.8l-20.2,5.7c-6.1,1.7-9.7,8.1-8,14.2v0c1.7,6.1,8.1,9.7,14.2,8l20.2-5.7c6.1-1.7,9.7-8.1,8-14.2h0
		C694.2,265.6,687.9,262.1,681.8,263.8z"/>
	<path d="M649.1,188.7l-18.2,10.5c-5.5,3.2-7.4,10.2-4.2,15.7v0c3.2,5.5,10.2,7.4,15.7,4.2l18.2-10.5c5.5-3.2,7.4-10.2,4.2-15.7v0
		C661.6,187.4,654.5,185.5,649.1,188.7z"/>
	<path d="M531,80l-10.5,18.2c-3.2,5.5-1.3,12.5,4.2,15.7v0c5.5,3.2,12.5,1.3,15.7-4.2l10.5-18.2c3.2-5.5,1.3-12.5-4.2-15.7v0
		C541.3,72.6,534.2,74.5,531,80z"/>
	<path d="M456,50.3l-6.5,20c-2,6,1.4,12.5,7.4,14.5v0c6,2,12.5-1.4,14.5-7.4l6.5-20c2-6-1.4-12.5-7.4-14.5l0,0
		C464.5,41,458,44.3,456,50.3z"/>
	<path d="M296.2,59.8l4.6,20.5c1.4,6.2,7.6,10.1,13.7,8.7l0,0c6.2-1.4,10.1-7.6,8.7-13.7l-4.6-20.5c-1.4-6.2-7.6-10.1-13.7-8.7l0,0
		C298.8,47.4,294.8,53.6,296.2,59.8z"/>
	<path d="M222.2,95.3l12.6,16.8c3.8,5.1,11,6.1,16.1,2.3l0,0c5.1-3.8,6.1-11,2.3-16.1l-12.6-16.8c-3.8-5.1-11-6.1-16.1-2.3l0,0
		C219.5,83,218.5,90.2,222.2,95.3z"/>
	<path d="M112.9,208.6l18.2,10.5c5.5,3.2,12.5,1.3,15.7-4.2l0,0c3.2-5.5,1.3-12.5-4.2-15.7l-18.2-10.5c-5.5-3.2-12.5-1.3-15.7,4.2
		l0,0C105.5,198.3,107.4,205.4,112.9,208.6z"/>
	<path d="M88.4,286.1l20.3,5.4c6.1,1.6,12.4-2,14.1-8.1l0,0c1.6-6.1-2-12.4-8.1-14.1l-20.3-5.4c-6.1-1.6-12.4,2-14.1,8.1l0,0
		C78.6,278.1,82.3,284.4,88.4,286.1z"/>
	<line x1="375" y1="386" x2="397.5" y2="386"/>
</g>
<g id="dial">
	<path class="st7" d="M381,354.5h10c6.6,0,12-5.4,12-12V48c0-6.6-5.4-12-12-12h-10c-6.6,0-12,5.4-12,12v294.5
		C369,349.1,374.4,354.5,381,354.5z"/>
</g>
<g id="Layer_4_1_">
	<path d="M309.7,386h154c0,0,8.7-93-75-93S309.7,386,309.7,386z"/>
</g>
</svg>
