<?xml version="1.0" encoding="iso-8859-1"?>
<!-- Generator: Adobe Illustrator 16.0.0, SVG Export Plug-In . SVG Version: 6.00 Build 0)  -->
<!DOCTYPE svg PUBLIC "-//W3C//DTD SVG 1.1//EN" "http://www.w3.org/Graphics/SVG/1.1/DTD/svg11.dtd">
<svg version="1.1" xmlns="http://www.w3.org/2000/svg" xmlns:xlink="http://www.w3.org/1999/xlink" x="0px" y="0px" width="500px"
	 height="325px" viewBox="0 0 500 325" style="enable-background:new 0 0 500 325;" xml:space="preserve">
<g id="body">
	<path style="fill:#318EFD;stroke:#000000;stroke-width:4;stroke-miterlimit:10;" d="M476,133.5c0,0,17.363,11.87,19.682,16.1
		s-0.705,10.879-5.288,13.9s-22.915,1.611-22.915,1.611l20.8,3.525c0,0,5.288,9.165,2.115,11.28s-8.46,4.235-8.46,4.235
		l-11.282,7.751c0,0-13.396,10.224-41.246,25.735c0,0-25.382,11.986-42.304,16.569c0,0-29.012,8.975-40.542,10.576
		c-12.69,1.763-35.253,0.088-46.534-2.468c0,0-37.721-7.051-60.284-29.261c0,0-40.542-33.844-47.24-36.664
		c0,0-21.152-17.274-33.138-15.511c0,0-14.224-25.379-6.364-36.38c0,0,29-50,95-66c0,0,58-12,95-6c0,0,38,0,82,28c0,0,21,14,27,23
		C452,103.5,470,128.5,476,133.5L476,133.5z"/>
	<path style="fill:none;stroke:#000000;stroke-width:4;stroke-miterlimit:10;" d="M372.647,76.272c0,0-83.551,37.016-10.576,134.316
		"/>
	<path style="fill:none;stroke:#000000;stroke-width:4;stroke-miterlimit:10;" d="M326.113,174.276c0,0,1.41,22.21-18.332,26.44
		c0,0-23.269,12.339-57.816,13.749c0,0-10.628-15.513-1.965-29.966c0,0,4.08-9.519,16.066-11.634"/>
	<path style="fill:none;stroke:#000000;stroke-width:2;stroke-miterlimit:10;" d="M285.368,178.859c0,0-25.849,7.674-36.795,4.542"
		/>
	<path style="fill:none;stroke:#000000;stroke-width:2;stroke-miterlimit:10;" d="M302.141,187.673c0,0-32.232,16.256-56.481,16.941
		"/>
	<path style="fill:#FFFFFF;stroke:#000000;stroke-width:4;stroke-miterlimit:10;" d="M432.931,134.47c0,13.807-11.192,25-25,25
		h-1.117c-13.808,0-25-11.193-25-25v-1.117c0-13.807,11.192-25,25-25h1.117c13.808,0,25,11.193,25,25V134.47z"/>
	<path d="M426.123,134.562c0,9.607-7.788,17.396-17.396,17.396l0,0c-9.607,0-17.396-7.788-17.396-17.396l0,0
		c0-9.607,7.788-17.396,17.396-17.396l0,0C418.335,117.166,426.123,124.954,426.123,134.562L426.123,134.562z"/>
	<path style="fill:#FFFFFF;stroke:#000000;stroke-miterlimit:10;" d="M421.239,132.152c0-3.179-2.577-5.756-5.756-5.756l0,0
		c-3.179,0-5.756,2.577-5.756,5.756l0,0c0,3.179,2.577,5.756,5.756,5.756l0,0C418.662,137.908,421.239,135.331,421.239,132.152
		L421.239,132.152z"/>
</g>
<g id="dorsal_fin">
	<path style="fill:#318FFF;stroke:#000000;stroke-width:4;stroke-miterlimit:10;" d="M343,52.5c0,0,0.208-11.128-19.444-24.877
		c0,0-38.689-26.44-114.837-24.325c0,0,35.807,19.922,36.94,55.791C245.659,59.088,296.614,42.337,343,52.5z"/>
	<path style="fill:none;stroke:#000000;stroke-width:2;stroke-miterlimit:10;" d="M303.903,38.903c0,0-41.082-20.324-74.655-18.446"
		/>
	<line style="fill:none;stroke:#000000;stroke-width:2;stroke-miterlimit:10;" x1="278.873" y1="42.429" x2="242.096" y2="41.327"/>
</g>
<g id="tail_fin">
	<path style="fill:#318FFF;stroke:#000000;stroke-width:4;stroke-miterlimit:10;" d="M151.205,128.433
		c0,0-37.396-25.368-63.054-35.592c-24.148-9.622-24.325-9.166-24.325-9.166l-31.375-7.403c0,0-19.742-2.468-29.261-1.41
		c0,0-10.929,53.589,59.578,106.644c0,0-8.109,118.979,23.62,138.368c0,0,76.148-84.962,70.507-160.404
		C156.896,159.47,151.507,134.06,151.205,128.433z"/>
	<path style="fill:none;stroke:#000000;stroke-width:2;stroke-miterlimit:10;" d="M133.276,132.152c0,0-65.924-26.62-99.062-25.209"
		/>
	<path style="fill:none;stroke:#000000;stroke-width:2;stroke-miterlimit:10;" d="M130.808,143.43c0,0-77.557-1.587-81.788,0"/>
	<path style="fill:none;stroke:#000000;stroke-width:2;stroke-miterlimit:10;" d="M136.801,156.65c0,0-52.175,50.765-67.334,50.765"
		/>
	<path style="fill:none;stroke:#000000;stroke-width:2;stroke-miterlimit:10;" d="M147.73,167.932
		c0,0-58.129,111.048-67.843,114.221"/>
</g>
</svg>
